<svg xmlns="http://www.w3.org/2000/svg" viewBox="0 0 32 40" fill="none" x="0px" y="0px"><path fill-rule="evenodd" clip-rule="evenodd" d="M16 6C12.6863 6 10 8.68629 10 12C10 15.3137 12.6863 18 16 18C19.3137 18 22 15.3137 22 12C22 8.68629 19.3137 6 16 6Z" fill="black"/><path fill-rule="evenodd" clip-rule="evenodd" d="M4 16C4 9.37258 9.37258 4 16 4C22.6274 4 28 9.37258 28 16C28 19.1991 26.7481 22.1059 24.7075 24.2571C24.7164 24.2476 24.7253 24.2382 24.7342 24.2288C23.9786 21.7797 21.6971 20 18.9999 20H12.9999C10.3028 20 8.02129 21.7796 7.26565 24.2287C5.24091 22.0804 4 19.1851 4 16ZM15.9999 30C8.26798 30 2 23.732 2 16C2 8.26801 8.26801 2 16 2C23.732 2 30 8.26801 30 16C30 23.732 23.732 30 16 30C16 30 16 30 15.9999 30Z" fill="black"/><text x="0" y="47" fill="#000000" font-size="5px" font-weight="bold" font-family="'Helvetica Neue', Helvetica, Arial-Unicode, Arial, Sans-serif">Created by Braja Omar Justico</text><text x="0" y="52" fill="#000000" font-size="5px" font-weight="bold" font-family="'Helvetica Neue', Helvetica, Arial-Unicode, Arial, Sans-serif">from the Noun Project</text></svg>