<svg xmlns="http://www.w3.org/2000/svg" xmlns:xlink="http://www.w3.org/1999/xlink" width="96" zoomAndPan="magnify" viewBox="0 0 72 72" height="96" preserveAspectRatio="xMidYMid meet" version="1.2"><defs><clipPath id="01daf64dc3"><path d="M 3.601562 3.601562 L 68.398438 3.601562 L 68.398438 68.398438 L 3.601562 68.398438 Z M 3.601562 3.601562 "/></clipPath><clipPath id="0466fe9e2b"><path d="M 36 3.601562 C 18.105469 3.601562 3.601562 18.105469 3.601562 36 C 3.601562 53.894531 18.105469 68.398438 36 68.398438 C 53.894531 68.398438 68.398438 53.894531 68.398438 36 C 68.398438 18.105469 53.894531 3.601562 36 3.601562 Z M 36 3.601562 "/></clipPath></defs><g id="69cc16dcd0"><g clip-rule="nonzero" clip-path="url(#01daf64dc3)"><g clip-rule="nonzero" clip-path="url(#0466fe9e2b)"><path style=" stroke:none;fill-rule:nonzero;fill:#f0ffdd;fill-opacity:1;" d="M 3.601562 3.601562 L 68.398438 3.601562 L 68.398438 68.398438 L 3.601562 68.398438 Z M 3.601562 3.601562 "/></g></g><g style="fill:#00562c;fill-opacity:1;"><g transform="translate(11.050299, 55.468693)"><path style="stroke:none" d="M 33.296875 0.71875 C 30.773438 0.71875 28.507812 0.171875 26.5 -0.921875 C 24.5 -2.023438 22.914062 -3.554688 21.75 -5.515625 C 20.59375 -7.484375 20.015625 -9.710938 20.015625 -12.203125 L 20.015625 -30.59375 C 20.015625 -31.238281 19.851562 -31.820312 19.53125 -32.34375 C 19.207031 -32.863281 18.785156 -33.28125 18.265625 -33.59375 C 17.742188 -33.914062 17.164062 -34.078125 16.53125 -34.078125 C 15.882812 -34.078125 15.300781 -33.914062 14.78125 -33.59375 C 14.257812 -33.28125 13.847656 -32.863281 13.546875 -32.34375 C 13.253906 -31.820312 13.109375 -31.238281 13.109375 -30.59375 L 13.109375 0 L 3.25 0 L 3.25 -29.875 C 3.25 -32.394531 3.816406 -34.617188 4.953125 -36.546875 C 6.097656 -38.472656 7.679688 -39.992188 9.703125 -41.109375 C 11.734375 -42.234375 14.007812 -42.796875 16.53125 -42.796875 C 19.09375 -42.796875 21.375 -42.234375 23.375 -41.109375 C 25.382812 -39.992188 26.96875 -38.472656 28.125 -36.546875 C 29.289062 -34.617188 29.875 -32.394531 29.875 -29.875 L 29.875 -11.484375 C 29.875 -10.835938 30.035156 -10.242188 30.359375 -9.703125 C 30.679688 -9.160156 31.09375 -8.738281 31.59375 -8.4375 C 32.09375 -8.144531 32.640625 -8 33.234375 -8 C 33.878906 -8 34.472656 -8.144531 35.015625 -8.4375 C 35.554688 -8.738281 35.984375 -9.160156 36.296875 -9.703125 C 36.617188 -10.242188 36.78125 -10.835938 36.78125 -11.484375 L 36.78125 -42.078125 L 46.578125 -42.078125 L 46.578125 -12.203125 C 46.578125 -9.710938 45.992188 -7.484375 44.828125 -5.515625 C 43.671875 -3.554688 42.09375 -2.023438 40.09375 -0.921875 C 38.09375 0.171875 35.828125 0.71875 33.296875 0.71875 Z M 33.296875 0.71875 "/></g></g></g></svg>